Coordinates
version=1
nRows=27
nColumns=26
inDegrees=yes

Units are S.I. units (second, meters, Newtons, ...)
Angles are in degrees.

endheader
time	pelvis_tilt	pelvis_list	pelvis_rotation	pelvis_tx	pelvis_ty	pelvis_tz	hip_flexion_r	hip_adduction_r	hip_rotation_r	knee_angle_r	knee_angle_r_beta	ankle_angle_r	subtalar_angle_r	mtp_angle_r	hip_flexion_l	hip_adduction_l	hip_rotation_l	knee_angle_l	knee_angle_l_beta	ankle_angle_l	subtalar_angle_l	mtp_angle_l	lumbar_extension	lumbar_bending	lumbar_rotation
      0.00000000	      5.13090821	     -3.58837785	     -4.10549386	      0.14251565	      0.98260021	      0.24823290	    -18.01030441	      4.86726241	     -2.54561034	     10.37125172	     10.37125172	     14.01029730	      0.00000000	      0.00000000	     22.98666804	     -5.60311093	    -15.93257031	     15.00533540	     15.00533540	     -0.16110661	      0.00000000	      0.00000000	    -20.02325949	      3.80992309	      8.79673090
      0.00833333	      5.27475305	     -3.58042323	     -4.59710683	      0.15275648	      0.98213012	      0.24849422	    -18.63348742	      4.57491956	     -2.28744810	     10.67726560	     10.67726560	     13.86321928	      0.00000000	      0.00000000	     22.42402696	     -5.56182869	    -16.07539471	     15.41725047	     15.41725047	     -0.29058742	      0.00000000	      0.00000000	    -20.03432605	      3.54565390	      9.15340363
      0.01666667	      5.46971120	     -3.53169982	     -5.14291987	      0.16314380	      0.98193882	      0.24864988	    -19.22922600	      4.18830622	     -2.05304200	     11.13311805	     11.13311805	     13.70852815	      0.00000000	      0.00000000	     21.42018512	     -5.34527949	    -16.27226220	     14.96005580	     14.96005580	     -1.16607077	      0.00000000	      0.00000000	    -20.07486755	      3.22540754	      9.49099433
      0.02500000	      5.48154881	     -3.47439061	     -5.55415962	      0.17352151	      0.98144917	      0.24850011	    -19.50681686	      3.82540196	     -1.92954184	     11.78924471	     11.78924471	     13.53468775	      0.00000000	      0.00000000	     20.83355224	     -5.12881694	    -16.01746994	     14.81230515	     14.81230515	     -2.53757944	      0.00000000	      0.00000000	    -19.88127771	      2.96246496	      9.63658502
      0.03333333	      5.48808102	     -3.48981539	     -5.90439233	      0.18388767	      0.98116319	      0.24820967	    -19.69708185	      3.53506627	     -1.88598047	     12.59913052	     12.59913052	     13.28133512	      0.00000000	      0.00000000	     20.24722787	     -5.00233637	    -15.67466264	     14.59339082	     14.59339082	     -3.99215589	      0.00000000	      0.00000000	    -19.67700057	      2.79781691	      9.71484652
      0.04166667	      5.45332681	     -3.45185362	     -6.20504365	      0.19430766	      0.98097624	      0.24793748	    -19.68754605	      3.19319980	     -1.87170720	     13.68822736	     13.68822736	     13.01711811	      0.00000000	      0.00000000	     19.75335153	     -4.88304000	    -15.38521626	     14.50799691	     14.50799691	     -5.31564594	      0.00000000	      0.00000000	    -19.41845023	      2.57436979	      9.71770532
      0.05000000	      5.42131859	     -3.42895017	     -6.45595352	      0.20468223	      0.98097772	      0.24766469	    -19.54492533	      2.88339665	     -1.88692820	     14.99560634	     14.99560634	     12.69919609	      0.00000000	      0.00000000	     19.41234878	     -4.87261065	    -15.24481052	     14.82250985	     14.82250985	     -5.95100663	      0.00000000	      0.00000000	    -19.17101466	      2.36403164	      9.63997021
      0.05833333	      5.44885156	     -3.31770730	     -6.60750440	      0.21509208	      0.98133122	      0.24733056	    -19.34223523	      2.48515751	     -1.98992779	     16.51261972	     16.51261972	     12.28707207	      0.00000000	      0.00000000	     18.97668651	     -4.79126797	    -15.12542236	     15.25457587	     15.25457587	     -5.96892136	      0.00000000	      0.00000000	    -18.97670849	      2.04737476	      9.48384773
      0.06666667	      5.42319858	     -3.19182324	     -6.71656138	      0.22529958	      0.98189772	      0.24702257	    -18.87647311	      2.08115617	     -2.10546954	     18.33437792	     18.33437792	     11.76932570	      0.00000000	      0.00000000	     18.78564007	     -4.74727753	    -14.92816481	     16.12135256	     16.12135256	     -5.51181849	      0.00000000	      0.00000000	    -18.75466879	      1.71097539	      9.30852538
      0.07500000	      5.41591370	     -2.95351165	     -6.74586455	      0.23540885	      0.98273578	      0.24652760	    -18.21297501	      1.54927802	     -2.27798965	     20.49503972	     20.49503972	     11.19067424	      0.00000000	      0.00000000	     18.69071216	     -4.52478198	    -14.52386151	     17.17478133	     17.17478133	     -4.72552788	      0.00000000	      0.00000000	    -18.56968263	      1.28030604	      9.05110200
      0.08333333	      5.51444369	     -2.67054258	     -6.71809121	      0.24548242	      0.98395603	      0.24596210	    -17.50357490	      0.95579691	     -2.44356796	     22.89658474	     22.89658474	     10.43506858	      0.00000000	      0.00000000	     18.47029952	     -4.21872565	    -14.14171838	     18.24754042	     18.24754042	     -3.75214400	      0.00000000	      0.00000000	    -18.51322760	      0.80118297	      8.77084295
      0.09166667	      5.71526543	     -2.37422876	     -6.61582728	      0.25553531	      0.98552229	      0.24526232	    -16.76461410	      0.31750975	     -2.67468018	     25.50651183	     25.50651183	      9.46547876	      0.00000000	      0.00000000	     18.12581388	     -3.86808526	    -13.77709784	     19.27129123	     19.27129123	     -2.81291281	      0.00000000	      0.00000000	    -18.59174191	      0.32695137	      8.44919674
      0.10000000	      6.02073210	     -2.10776948	     -6.51083029	      0.26563740	      0.98734790	      0.24444183	    -16.01542450	     -0.32503810	     -2.89003010	     28.24842790	     28.24842790	      8.23865877	      0.00000000	      0.00000000	     17.46248279	     -3.49456585	    -13.52728718	     19.90027428	     19.90027428	     -2.04352528	      0.00000000	      0.00000000	    -18.79983187	     -0.10843100	      8.17664528
      0.10833333	      6.37493175	     -1.81433863	     -6.42954816	      0.27568547	      0.98932052	      0.24360799	    -15.18263033	     -1.05808663	     -3.10344536	     31.15189669	     31.15189669	      6.78817848	      0.00000000	      0.00000000	     16.52410778	     -3.02702694	    -13.55641842	     20.05922919	     20.05922919	     -1.44756844	      0.00000000	      0.00000000	    -19.06456949	     -0.56456836	      7.92683158
      0.11666667	      6.67907344	     -1.58270296	     -6.36004712	      0.28556726	      0.99125231	      0.24275669	    -14.16854279	     -1.73940711	     -3.28203883	     34.16665528	     34.16665528	      5.12317886	      0.00000000	      0.00000000	     15.53756866	     -2.60031919	    -13.80509311	     20.00381851	     20.00381851	     -0.93496229	      0.00000000	      0.00000000	    -19.28205017	     -0.91981812	      7.71315114
      0.12500000	      6.92383988	     -1.32161201	     -6.29025820	      0.29535430	      0.99302296	      0.24194954	    -12.98090735	     -2.48166739	     -3.51509184	     37.29886538	     37.29886538	      3.36692464	      0.00000000	      0.00000000	     14.56084631	     -2.13464448	    -14.15632399	     19.83327191	     19.83327191	     -0.40934170	      0.00000000	      0.00000000	    -19.42033997	     -1.28606388	      7.44274562
      0.13333333	      7.07737981	     -1.10060130	     -6.25146051	      0.30481450	      0.99467440	      0.24135027	    -11.60069632	     -3.15260686	     -3.62127399	     40.43697694	     40.43697694	      1.54636086	      0.00000000	      0.00000000	     13.69252357	     -1.72462978	    -14.47246478	     19.65252068	     19.65252068	      0.10354418	      0.00000000	      0.00000000	    -19.47400310	     -1.61447682	      7.21498122
      0.14166667	      7.15678520	     -0.84657944	     -6.23050776	      0.31407887	      0.99624017	      0.24082940	    -10.11125188	     -3.83123561	     -3.65135911	     43.50367085	     43.50367085	     -0.34548513	      0.00000000	      0.00000000	     12.88780479	     -1.29674029	    -14.76508468	     19.43211603	     19.43211603	      0.58775257	      0.00000000	      0.00000000	    -19.43472851	     -1.96228922	      6.95197923
      0.15000000	      7.18612194	     -0.60468493	     -6.18726023	      0.32318304	      0.99773682	      0.24023405	     -8.58212012	     -4.46229125	     -3.64442557	     46.44228930	     46.44228930	     -1.95855725	      0.00000000	      0.00000000	     12.10979748	     -0.87035191	    -15.01946639	     19.11928228	     19.11928228	      0.98775702	      0.00000000	      0.00000000	    -19.33325398	     -2.27893015	      6.68574566
      0.15833333	      7.21667918	     -0.42736701	     -6.04839612	      0.33215192	      0.99924070	      0.23956862	     -7.14988430	     -4.93402751	     -3.60760594	     49.02693329	     49.02693329	     -3.54243797	      0.00000000	      0.00000000	     11.36325252	     -0.51565378	    -15.09756747	     18.82621285	     18.82621285	      1.30364879	      0.00000000	      0.00000000	    -19.25469089	     -2.48663845	      6.33659062
      0.16666667	      7.25529642	     -0.28878781	     -5.87956726	      0.34119252	      1.00078751	      0.23887965	     -5.82714369	     -5.27083477	     -3.46191977	     51.36905787	     51.36905787	     -3.86615141	      0.00000000	      0.00000000	     10.56698664	     -0.18271466	    -15.13102775	     18.45267452	     18.45267452	      1.63863272	      0.00000000	      0.00000000	    -19.15509307	     -2.65063025	      5.95553819
      0.17500000	      7.45942170	     -0.13526194	     -5.64245392	      0.35021075	      1.00272456	      0.23818980	     -4.74492186	     -5.49141232	     -3.11592619	     53.54297750	     53.54297750	     -2.98546762	      0.00000000	      0.00000000	      9.50586852	      0.21953364	    -15.09670141	     17.88624340	     17.88624340	      1.80441964	      0.00000000	      0.00000000	    -19.24573596	     -2.84240634	      5.56446831
      0.18333333	      7.53322737	     -0.10817927	     -5.34302940	      0.35907498	      1.00434706	      0.23741585	     -3.55705980	     -5.60022124	     -3.03730572	     55.49657293	     55.49657293	     -1.90294243	      0.00000000	      0.00000000	      8.72455825	      0.40367400	    -14.95485147	     17.63899544	     17.63899544	      2.08967325	      0.00000000	      0.00000000	    -19.21308472	     -2.84375588	      5.16912113
      0.19166667	      7.69286528	     -0.06267487	     -4.95293220	      0.36788075	      1.00616261	      0.23646923	     -2.55880584	     -5.70938704	     -3.05911853	     57.03855604	     57.03855604	     -1.20996092	      0.00000000	      0.00000000	      7.79876189	      0.64464894	    -14.75588954	     17.25868522	     17.25868522	      2.32174676	      0.00000000	      0.00000000	    -19.28442687	     -2.84858176	      4.71268274
      0.20000000	      7.83116315	     -0.10699074	     -4.47109725	      0.37662396	      1.00796872	      0.23530392	     -1.61247230	     -5.70391721	     -3.17649617	     58.26375807	     58.26375807	     -0.99099159	      0.00000000	      0.00000000	      6.92366070	      0.77479754	    -14.43842247	     16.94520001	     16.94520001	      2.57444682	      0.00000000	      0.00000000	    -19.35841582	     -2.69907076	      4.24653475
      0.20833333	      7.94166815	     -0.10244578	     -4.00528601	      0.38533764	      1.00966253	      0.23411905	     -0.65992984	     -5.77702534	     -3.35781644	     59.23763213	     59.23763213	     -0.96191146	      0.00000000	      0.00000000	      6.06102797	      0.95858559	    -14.11914517	     16.54433488	     16.54433488	      2.72616102	      0.00000000	      0.00000000	    -19.40943499	     -2.59846491	      3.83212844
      0.21666667	      8.00973076	     -0.12017358	     -3.51642368	      0.39387326	      1.01129047	      0.23300921	      0.31085532	     -5.81402602	     -3.59868611	     59.99214521	     59.99214521	     -0.82857246	      0.00000000	      0.00000000	      5.14727065	      1.12017202	    -13.55587933	     15.94556507	     15.94556507	      2.80301327	      0.00000000	      0.00000000	    -19.43481368	     -2.46980361	      3.39777121
